<svg width="39" height="19" viewBox="0 0 39 19" fill="none" xmlns="http://www.w3.org/2000/svg">
<g id="Group">
<path id="Vector" d="M25.5 1H13.25C10.0011 1 6.88526 1.89553 4.58794 3.48959C2.29062 5.08365 1 7.24566 1 9.5C1 11.7543 2.29062 13.9163 4.58794 15.5104C6.88526 17.1045 10.0011 18 13.25 18H25.5C28.7489 18 31.8647 17.1045 34.1621 15.5104C36.4594 13.9163 37.75 11.7543 37.75 9.5C37.75 7.24566 36.4594 5.08365 34.1621 3.48959C31.8647 1.89553 28.7489 1 25.5 1Z" stroke="#EB00FF" stroke-linecap="round" stroke-linejoin="round"/>
<path id="Vector_2" d="M25.5 13.75C28.8827 13.75 31.625 11.8472 31.625 9.5C31.625 7.15279 28.8827 5.25 25.5 5.25C22.1173 5.25 19.375 7.15279 19.375 9.5C19.375 11.8472 22.1173 13.75 25.5 13.75Z" fill="#EB03FF" stroke="#EB03FF" stroke-width="2"/>
</g>
</svg>
