<svg width="40" height="30" viewBox="0 0 40 30" fill="none" xmlns="http://www.w3.org/2000/svg">
<g id="Group">
<path id="Vector" d="M15.9375 30C7.41935 30 0.5 23.101 0.5 14.608V0C9.01814 0 15.9375 6.89896 15.9375 15.392V30Z" fill="url(#paint0_linear_1_1528)"/>
<path id="Vector_2" d="M17.2744 17.561V9.79965C17.2744 4.39024 21.6776 0 27.103 0V7.76132C27.103 13.1707 22.6998 17.561 17.2744 17.561Z" fill="url(#paint1_linear_1_1528)"/>
<path id="Vector_3" d="M39.5002 29.9995H28.2301C22.1756 29.9995 17.2744 25.1128 17.2744 19.0762H28.5446C34.599 19.0762 39.5002 23.9629 39.5002 29.9995Z" fill="url(#paint2_linear_1_1528)"/>
</g>
<defs>
<linearGradient id="paint0_linear_1_1528" x1="0.5" y1="15" x2="15.9375" y2="15" gradientUnits="userSpaceOnUse">
<stop stop-color="#7A87FB"/>
<stop offset="1" stop-color="#FFD49C"/>
</linearGradient>
<linearGradient id="paint1_linear_1_1528" x1="17.2744" y1="8.78049" x2="27.103" y2="8.78049" gradientUnits="userSpaceOnUse">
<stop stop-color="#7A87FB"/>
<stop offset="1" stop-color="#FFD49C"/>
</linearGradient>
<linearGradient id="paint2_linear_1_1528" x1="17.2744" y1="24.5378" x2="39.5002" y2="24.5378" gradientUnits="userSpaceOnUse">
<stop stop-color="#7A87FB"/>
<stop offset="1" stop-color="#FFD49C"/>
</linearGradient>
</defs>
</svg>
